<mxfile host="app.diagrams.net" modified="2024-06-22T13:26:44.921Z" agent="Mozilla/5.0 (Macintosh; Intel Mac OS X 10_15_7) AppleWebKit/605.1.15 (KHTML, like Gecko) Version/17.5 Safari/605.1.15" etag="x1tON2wl3bvThwivqJCn" version="24.6.0" type="device">
  <diagram name="Page-1" id="TDZ-LZ3pCN9mh_Zn90XO">
    <mxGraphModel dx="1781" dy="1816" grid="0" gridSize="10" guides="1" tooltips="1" connect="1" arrows="1" fold="1" page="1" pageScale="1" pageWidth="827" pageHeight="1169" math="0" shadow="0">
      <root>
        <mxCell id="0" />
        <mxCell id="1" parent="0" />
        <mxCell id="cwN4F9VtouW_iI9x6BH4-2" value="&lt;p style=&quot;margin: 0px; font-style: normal; font-variant-caps: normal; font-stretch: normal; line-height: normal; font-family: &amp;quot;Helvetica Neue&amp;quot;; font-size-adjust: none; font-kerning: auto; font-variant-alternates: normal; font-variant-ligatures: normal; font-variant-numeric: normal; font-variant-east-asian: normal; font-variant-position: normal; font-feature-settings: normal; font-optical-sizing: auto; font-variation-settings: normal; font-size: 18px;&quot;&gt;&lt;font style=&quot;font-size: 18px;&quot;&gt;customer (&lt;span style=&quot;text-decoration: underline;&quot;&gt;id&lt;/span&gt;, unique_id, &amp;nbsp;zip_code)&lt;/font&gt;&lt;/p&gt;&lt;p style=&quot;margin: 0px; font-style: normal; font-variant-caps: normal; font-stretch: normal; line-height: normal; font-family: &amp;quot;Helvetica Neue&amp;quot;; font-size-adjust: none; font-kerning: auto; font-variant-alternates: normal; font-variant-ligatures: normal; font-variant-numeric: normal; font-variant-east-asian: normal; font-variant-position: normal; font-feature-settings: normal; font-optical-sizing: auto; font-variation-settings: normal; font-size: 18px;&quot;&gt;&lt;font style=&quot;font-size: 18px;&quot;&gt;&lt;br&gt;&lt;/font&gt;&lt;/p&gt;&lt;p style=&quot;margin: 0px; font-style: normal; font-variant-caps: normal; font-stretch: normal; line-height: normal; font-family: &amp;quot;Helvetica Neue&amp;quot;; font-size-adjust: none; font-kerning: auto; font-variant-alternates: normal; font-variant-ligatures: normal; font-variant-numeric: normal; font-variant-east-asian: normal; font-variant-position: normal; font-feature-settings: normal; font-optical-sizing: auto; font-variation-settings: normal; font-size: 18px;&quot;&gt;&lt;font style=&quot;font-size: 18px;&quot;&gt;order (&lt;span style=&quot;text-decoration: underline;&quot;&gt;id&lt;/span&gt;, status, purchase_timestamp, delivered_carrier_date, delivered_customer_date, estimated_delivery_date, approved_at, customer_id)&lt;/font&gt;&lt;/p&gt;&lt;p style=&quot;margin: 0px; font-style: normal; font-variant-caps: normal; font-stretch: normal; line-height: normal; font-family: &amp;quot;Helvetica Neue&amp;quot;; font-size-adjust: none; font-kerning: auto; font-variant-alternates: normal; font-variant-ligatures: normal; font-variant-numeric: normal; font-variant-east-asian: normal; font-variant-position: normal; font-feature-settings: normal; font-optical-sizing: auto; font-variation-settings: normal; font-size: 18px;&quot;&gt;&lt;font style=&quot;font-size: 18px;&quot;&gt;&lt;br&gt;&lt;/font&gt;&lt;/p&gt;&lt;p style=&quot;margin: 0px; font-style: normal; font-variant-caps: normal; font-stretch: normal; line-height: normal; font-family: &amp;quot;Helvetica Neue&amp;quot;; font-size-adjust: none; font-kerning: auto; font-variant-alternates: normal; font-variant-ligatures: normal; font-variant-numeric: normal; font-variant-east-asian: normal; font-variant-position: normal; font-feature-settings: normal; font-optical-sizing: auto; font-variation-settings: normal; font-size: 18px;&quot;&gt;&lt;font style=&quot;font-size: 18px;&quot;&gt;order_review (&lt;u&gt;order_id, review_id&lt;/u&gt;, review_score)&lt;/font&gt;&lt;/p&gt;&lt;p style=&quot;margin: 0px; font-style: normal; font-variant-caps: normal; font-stretch: normal; line-height: normal; font-family: &amp;quot;Helvetica Neue&amp;quot;; font-size-adjust: none; font-kerning: auto; font-variant-alternates: normal; font-variant-ligatures: normal; font-variant-numeric: normal; font-variant-east-asian: normal; font-variant-position: normal; font-feature-settings: normal; font-optical-sizing: auto; font-variation-settings: normal; font-size: 18px;&quot;&gt;&lt;font style=&quot;font-size: 18px;&quot;&gt;&lt;br&gt;&lt;/font&gt;&lt;/p&gt;&lt;p style=&quot;margin: 0px; font-style: normal; font-variant-caps: normal; font-stretch: normal; line-height: normal; font-family: &amp;quot;Helvetica Neue&amp;quot;; font-size-adjust: none; font-kerning: auto; font-variant-alternates: normal; font-variant-ligatures: normal; font-variant-numeric: normal; font-variant-east-asian: normal; font-variant-position: normal; font-feature-settings: normal; font-optical-sizing: auto; font-variation-settings: normal; font-size: 18px;&quot;&gt;&lt;font style=&quot;font-size: 18px;&quot;&gt;order_payment(&lt;u&gt;order_id, payment_sequential&lt;/u&gt;, payment_installment, payment_type, payment_value)&lt;/font&gt;&lt;/p&gt;&lt;p style=&quot;margin: 0px; font-style: normal; font-variant-caps: normal; font-stretch: normal; line-height: normal; font-family: &amp;quot;Helvetica Neue&amp;quot;; font-size-adjust: none; font-kerning: auto; font-variant-alternates: normal; font-variant-ligatures: normal; font-variant-numeric: normal; font-variant-east-asian: normal; font-variant-position: normal; font-feature-settings: normal; font-optical-sizing: auto; font-variation-settings: normal; font-size: 18px;&quot;&gt;&lt;font style=&quot;font-size: 18px;&quot;&gt;&lt;br&gt;&lt;/font&gt;&lt;/p&gt;&lt;p style=&quot;margin: 0px; font-style: normal; font-variant-caps: normal; font-stretch: normal; line-height: normal; font-family: &amp;quot;Helvetica Neue&amp;quot;; font-size-adjust: none; font-kerning: auto; font-variant-alternates: normal; font-variant-ligatures: normal; font-variant-numeric: normal; font-variant-east-asian: normal; font-variant-position: normal; font-feature-settings: normal; font-optical-sizing: auto; font-variation-settings: normal; font-size: 18px;&quot;&gt;&lt;font style=&quot;font-size: 18px;&quot;&gt;order_items (&lt;u&gt;order_id, order_item_id&lt;/u&gt;, shipping_limit, freight_value, price, product_id, seller_id)&lt;br&gt;&lt;/font&gt;&lt;/p&gt;&lt;p style=&quot;margin: 0px; font-style: normal; font-variant-caps: normal; font-stretch: normal; line-height: normal; font-family: &amp;quot;Helvetica Neue&amp;quot;; font-size-adjust: none; font-kerning: auto; font-variant-alternates: normal; font-variant-ligatures: normal; font-variant-numeric: normal; font-variant-east-asian: normal; font-variant-position: normal; font-feature-settings: normal; font-optical-sizing: auto; font-variation-settings: normal; font-size: 18px;&quot;&gt;&lt;font style=&quot;font-size: 18px;&quot;&gt;&lt;br&gt;&lt;/font&gt;&lt;/p&gt;&lt;p style=&quot;margin: 0px; font-style: normal; font-variant-caps: normal; font-stretch: normal; line-height: normal; font-family: &amp;quot;Helvetica Neue&amp;quot;; font-size-adjust: none; font-kerning: auto; font-variant-alternates: normal; font-variant-ligatures: normal; font-variant-numeric: normal; font-variant-east-asian: normal; font-variant-position: normal; font-feature-settings: normal; font-optical-sizing: auto; font-variation-settings: normal; font-size: 18px;&quot;&gt;&lt;font style=&quot;font-size: 18px;&quot;&gt;product (&lt;u&gt;id&lt;/u&gt;, category_name, category_name_english)&lt;/font&gt;&lt;/p&gt;&lt;p style=&quot;margin: 0px; font-style: normal; font-variant-caps: normal; font-stretch: normal; line-height: normal; font-family: &amp;quot;Helvetica Neue&amp;quot;; font-size-adjust: none; font-kerning: auto; font-variant-alternates: normal; font-variant-ligatures: normal; font-variant-numeric: normal; font-variant-east-asian: normal; font-variant-position: normal; font-feature-settings: normal; font-optical-sizing: auto; font-variation-settings: normal; font-size: 18px;&quot;&gt;&lt;font style=&quot;font-size: 18px;&quot;&gt;&lt;br&gt;&lt;/font&gt;&lt;/p&gt;&lt;p style=&quot;margin: 0px; font-style: normal; font-variant-caps: normal; font-stretch: normal; line-height: normal; font-family: &amp;quot;Helvetica Neue&amp;quot;; font-size-adjust: none; font-kerning: auto; font-variant-alternates: normal; font-variant-ligatures: normal; font-variant-numeric: normal; font-variant-east-asian: normal; font-variant-position: normal; font-feature-settings: normal; font-optical-sizing: auto; font-variation-settings: normal; font-size: 18px;&quot;&gt;&lt;font style=&quot;font-size: 18px;&quot;&gt;seller (&lt;u&gt;id&lt;/u&gt;, zip_code)&lt;/font&gt;&lt;/p&gt;&lt;p style=&quot;margin: 0px; font-style: normal; font-variant-caps: normal; font-stretch: normal; line-height: normal; font-family: &amp;quot;Helvetica Neue&amp;quot;; font-size-adjust: none; font-kerning: auto; font-variant-alternates: normal; font-variant-ligatures: normal; font-variant-numeric: normal; font-variant-east-asian: normal; font-variant-position: normal; font-feature-settings: normal; font-optical-sizing: auto; font-variation-settings: normal; font-size: 18px;&quot;&gt;&lt;font style=&quot;font-size: 18px;&quot;&gt;&lt;br&gt;&lt;/font&gt;&lt;/p&gt;&lt;p style=&quot;margin: 0px; font-style: normal; font-variant-caps: normal; font-stretch: normal; line-height: normal; font-family: &amp;quot;Helvetica Neue&amp;quot;; font-size-adjust: none; font-kerning: auto; font-variant-alternates: normal; font-variant-ligatures: normal; font-variant-numeric: normal; font-variant-east-asian: normal; font-variant-position: normal; font-feature-settings: normal; font-optical-sizing: auto; font-variation-settings: normal; font-size: 18px;&quot;&gt;&lt;font style=&quot;font-size: 18px;&quot;&gt;region (&lt;u&gt;zip_code&lt;/u&gt;, city, state)&lt;/font&gt;&lt;/p&gt;" style="text;html=1;align=left;verticalAlign=middle;whiteSpace=wrap;rounded=0;" parent="1" vertex="1">
          <mxGeometry x="-669" y="-220" width="1153" height="453" as="geometry" />
        </mxCell>
        <mxCell id="cwN4F9VtouW_iI9x6BH4-3" value="" style="endArrow=none;dashed=1;html=1;dashPattern=1 3;strokeWidth=2;rounded=0;exitX=0.192;exitY=0.199;exitDx=0;exitDy=0;exitPerimeter=0;" parent="1" source="cwN4F9VtouW_iI9x6BH4-2" edge="1">
          <mxGeometry width="50" height="50" relative="1" as="geometry">
            <mxPoint x="-440" y="-75" as="sourcePoint" />
            <mxPoint x="-395" y="-131" as="targetPoint" />
          </mxGeometry>
        </mxCell>
        <mxCell id="cwN4F9VtouW_iI9x6BH4-4" value="" style="endArrow=none;dashed=1;html=1;dashPattern=1 3;strokeWidth=2;rounded=0;exitX=0.192;exitY=0.199;exitDx=0;exitDy=0;exitPerimeter=0;" parent="1" edge="1">
          <mxGeometry width="50" height="50" relative="1" as="geometry">
            <mxPoint x="-590" y="131" as="sourcePoint" />
            <mxPoint x="-524" y="131" as="targetPoint" />
          </mxGeometry>
        </mxCell>
        <mxCell id="cwN4F9VtouW_iI9x6BH4-5" value="" style="endArrow=none;dashed=1;html=1;dashPattern=1 3;strokeWidth=2;rounded=0;exitX=0.192;exitY=0.199;exitDx=0;exitDy=0;exitPerimeter=0;" parent="1" edge="1">
          <mxGeometry width="50" height="50" relative="1" as="geometry">
            <mxPoint x="-558" y="-42" as="sourcePoint" />
            <mxPoint x="-492" y="-42" as="targetPoint" />
          </mxGeometry>
        </mxCell>
        <mxCell id="cwN4F9VtouW_iI9x6BH4-6" value="" style="endArrow=none;dashed=1;html=1;dashPattern=1 3;strokeWidth=2;rounded=0;exitX=0.192;exitY=0.199;exitDx=0;exitDy=0;exitPerimeter=0;" parent="1" edge="1">
          <mxGeometry width="50" height="50" relative="1" as="geometry">
            <mxPoint x="-562" y="46" as="sourcePoint" />
            <mxPoint x="-496" y="46" as="targetPoint" />
          </mxGeometry>
        </mxCell>
        <mxCell id="cwN4F9VtouW_iI9x6BH4-8" value="" style="endArrow=none;dashed=1;html=1;dashPattern=1 3;strokeWidth=2;rounded=0;exitX=0.192;exitY=0.199;exitDx=0;exitDy=0;exitPerimeter=0;" parent="1" edge="1">
          <mxGeometry width="50" height="50" relative="1" as="geometry">
            <mxPoint x="-546" as="sourcePoint" />
            <mxPoint x="-480" as="targetPoint" />
          </mxGeometry>
        </mxCell>
        <mxCell id="cwN4F9VtouW_iI9x6BH4-9" value="" style="endArrow=none;dashed=1;html=1;dashPattern=1 3;strokeWidth=2;rounded=0;exitX=0.192;exitY=0.199;exitDx=0;exitDy=0;exitPerimeter=0;" parent="1" edge="1">
          <mxGeometry width="50" height="50" relative="1" as="geometry">
            <mxPoint x="-75" y="43" as="sourcePoint" />
            <mxPoint x="-9" y="43" as="targetPoint" />
          </mxGeometry>
        </mxCell>
        <mxCell id="cwN4F9VtouW_iI9x6BH4-10" value="" style="endArrow=none;dashed=1;html=1;dashPattern=1 3;strokeWidth=2;rounded=0;exitX=0.192;exitY=0.199;exitDx=0;exitDy=0;exitPerimeter=0;" parent="1" edge="1">
          <mxGeometry width="50" height="50" relative="1" as="geometry">
            <mxPoint x="11" y="43" as="sourcePoint" />
            <mxPoint x="77" y="43" as="targetPoint" />
          </mxGeometry>
        </mxCell>
        <mxCell id="gUKp1gvrLjbI5LN0wrQ2-4" value="" style="endArrow=none;dashed=1;html=1;rounded=0;" edge="1" parent="1">
          <mxGeometry width="50" height="50" relative="1" as="geometry">
            <mxPoint x="365" y="-88" as="sourcePoint" />
            <mxPoint x="407" y="-88" as="targetPoint" />
            <Array as="points">
              <mxPoint x="463" y="-88" />
            </Array>
          </mxGeometry>
        </mxCell>
      </root>
    </mxGraphModel>
  </diagram>
</mxfile>
